<?xml version="1.0" standalone="no"?>
<!DOCTYPE svg PUBLIC "-//W3C//DTD SVG 20010904//EN"
 "http://www.w3.org/TR/2001/REC-SVG-20010904/DTD/svg10.dtd">
<svg version="1.0" xmlns="http://www.w3.org/2000/svg"
 width="512.000000pt" height="512.000000pt" viewBox="0 0 512.000000 512.000000"
 preserveAspectRatio="xMidYMid meet">
<metadata>
Created by potrace 1.14, written by Peter Selinger 2001-2017
</metadata>
<g transform="translate(0.000000,512.000000) scale(0.100000,-0.100000)"
fill="#000000" stroke="none">
<path d="M0 2560 l0 -2560 2560 0 2560 0 0 2560 0 2560 -2560 0 -2560 0 0
-2560z m2850 1895 c409 -61 776 -248 1067 -543 296 -298 472 -646 539 -1062
34 -210 20 -540 -32 -745 -87 -348 -253 -641 -507 -897 -291 -294 -649 -477
-1067 -544 -210 -34 -540 -20 -745 32 -350 88 -653 260 -902 512 -254 256
-420 549 -507 897 -67 265 -67 645 0 910 87 348 253 641 507 897 256 259 573
436 927 517 74 17 141 27 300 45 68 8 316 -3 420 -19z"/>
<path d="M2460 4294 c-341 -27 -645 -135 -910 -322 -119 -84 -314 -279 -402
-403 -157 -220 -271 -506 -309 -774 -16 -116 -16 -354 0 -470 50 -353 211
-689 456 -950 l84 -90 -35 85 c-138 332 -201 634 -191 925 5 175 23 282 72
431 87 267 224 476 452 694 125 119 211 182 326 238 211 103 313 126 557 126
156 0 199 -3 275 -22 371 -90 676 -333 834 -667 43 -90 83 -208 104 -305 l15
-65 1 96 c2 188 -23 359 -85 571 -48 167 -100 294 -205 504 l-90 181 -107 51
c-156 73 -322 125 -472 147 -102 15 -297 25 -370 19z"/>
<path d="M3744 3814 c47 -99 130 -340 166 -486 138 -559 33 -1056 -307 -1459
-91 -109 -248 -258 -336 -319 -119 -84 -279 -155 -432 -192 -131 -32 -419 -32
-550 0 -371 90 -676 333 -834 667 -50 105 -88 217 -97 284 -13 99 -27 20 -20
-115 15 -322 105 -628 294 -1004 68 -134 68 -135 128 -167 142 -77 367 -152
538 -179 134 -21 398 -21 532 0 257 40 524 149 747 306 116 82 311 278 399
401 122 170 224 395 277 608 60 240 60 562 0 802 -52 212 -156 439 -274 604
-76 105 -254 297 -231 249z"/>
<path d="M2385 3594 c-94 -17 -220 -57 -290 -92 -192 -96 -381 -285 -477 -477
-62 -123 -108 -323 -108 -465 0 -142 46 -342 108 -465 96 -193 284 -381 477
-477 123 -62 323 -108 465 -108 142 0 342 46 465 108 192 96 381 285 477 477
62 123 108 323 108 465 0 142 -46 342 -108 465 -96 193 -284 381 -477 477
-183 92 -437 128 -640 92z"/>
</g>
</svg>
